ISO-10303-21;
HEADER;
/* Generated by software containing ST-Developer
 * from STEP Tools, Inc. (www.steptools.com) 
 */
/* OPTION: using custom renumber hook */

FILE_DESCRIPTION(
/* description */ ('STEP AP242 Edition 2',
'CAx-IF Rec.Pracs.---Representation and Presentation of Product Manufa
cturing Information (PMI)---4.0---2014-10-13',
'CAx-IF Rec.Pracs.---3D Tessellated Geometry---0.4---2014-09-14','2;1',
'CAx-IF Rec.Pracs.---User Defined Attributes---1.5---2016-08-15'),
/* implementation_level */ '2;1');

FILE_NAME(
/* name */ 'Part Studio 6 - Part 1',
/* time_stamp */ '2026-04-23T11:22:38Z',
/* author */ (''),
/* organization */ (''),
/* preprocessor_version */ 'ST-DEVELOPER v20',
/* originating_system */ 'ONSHAPE BY PTC INC, 1.213',
/* authorisation */ '  ');

FILE_SCHEMA (('AP242_MANAGED_MODEL_BASED_3D_ENGINEERING_MIM_LF { 1 0 10303 442 3 1 4 }'));
ENDSEC;

DATA;
#10=SHAPE_REPRESENTATION_RELATIONSHIP('','',#109,#11);
#11=ADVANCED_BREP_SHAPE_REPRESENTATION('',(#107),#848);
#12=B_SPLINE_SURFACE_WITH_KNOTS('',3,3,((#307,#308,#309,#310,#311,#312,
#313,#314,#315,#316,#317,#318,#319,#320,#321,#322,#323),(#324,#325,#326,
#327,#328,#329,#330,#331,#332,#333,#334,#335,#336,#337,#338,#339,#340),
(#341,#342,#343,#344,#345,#346,#347,#348,#349,#350,#351,#352,#353,#354,
#355,#356,#357),(#358,#359,#360,#361,#362,#363,#364,#365,#366,#367,#368,
#369,#370,#371,#372,#373,#374),(#375,#376,#377,#378,#379,#380,#381,#382,
#383,#384,#385,#386,#387,#388,#389,#390,#391),(#392,#393,#394,#395,#396,
#397,#398,#399,#400,#401,#402,#403,#404,#405,#406,#407,#408),(#409,#410,
#411,#412,#413,#414,#415,#416,#417,#418,#419,#420,#421,#422,#423,#424,#425),
(#426,#427,#428,#429,#430,#431,#432,#433,#434,#435,#436,#437,#438,#439,
#440,#441,#442),(#443,#444,#445,#446,#447,#448,#449,#450,#451,#452,#453,
#454,#455,#456,#457,#458,#459),(#460,#461,#462,#463,#464,#465,#466,#467,
#468,#469,#470,#471,#472,#473,#474,#475,#476),(#477,#478,#479,#480,#481,
#482,#483,#484,#485,#486,#487,#488,#489,#490,#491,#492,#493),(#494,#495,
#496,#497,#498,#499,#500,#501,#502,#503,#504,#505,#506,#507,#508,#509,#510),
(#511,#512,#513,#514,#515,#516,#517,#518,#519,#520,#521,#522,#523,#524,
#525,#526,#527),(#528,#529,#530,#531,#532,#533,#534,#535,#536,#537,#538,
#539,#540,#541,#542,#543,#544),(#545,#546,#547,#548,#549,#550,#551,#552,
#553,#554,#555,#556,#557,#558,#559,#560,#561),(#562,#563,#564,#565,#566,
#567,#568,#569,#570,#571,#572,#573,#574,#575,#576,#577,#578),(#579,#580,
#581,#582,#583,#584,#585,#586,#587,#588,#589,#590,#591,#592,#593,#594,#595),
(#596,#597,#598,#599,#600,#601,#602,#603,#604,#605,#606,#607,#608,#609,
#610,#611,#612),(#613,#614,#615,#616,#617,#618,#619,#620,#621,#622,#623,
#624,#625,#626,#627,#628,#629),(#630,#631,#632,#633,#634,#635,#636,#637,
#638,#639,#640,#641,#642,#643,#644,#645,#646),(#647,#648,#649,#650,#651,
#652,#653,#654,#655,#656,#657,#658,#659,#660,#661,#662,#663),(#664,#665,
#666,#667,#668,#669,#670,#671,#672,#673,#674,#675,#676,#677,#678,#679,#680),
(#681,#682,#683,#684,#685,#686,#687,#688,#689,#690,#691,#692,#693,#694,
#695,#696,#697),(#698,#699,#700,#701,#702,#703,#704,#705,#706,#707,#708,
#709,#710,#711,#712,#713,#714),(#715,#716,#717,#718,#719,#720,#721,#722,
#723,#724,#725,#726,#727,#728,#729,#730,#731),(#732,#733,#734,#735,#736,
#737,#738,#739,#740,#741,#742,#743,#744,#745,#746,#747,#748),(#749,#750,
#751,#752,#753,#754,#755,#756,#757,#758,#759,#760,#761,#762,#763,#764,#765),
(#766,#767,#768,#769,#770,#771,#772,#773,#774,#775,#776,#777,#778,#779,
#780,#781,#782),(#783,#784,#785,#786,#787,#788,#789,#790,#791,#792,#793,
#794,#795,#796,#797,#798,#799),(#800,#801,#802,#803,#804,#805,#806,#807,
#808,#809,#810,#811,#812,#813,#814,#815,#816),(#817,#818,#819,#820,#821,
#822,#823,#824,#825,#826,#827,#828,#829,#830,#831,#832,#833)),
 .UNSPECIFIED.,.T.,.F.,.F.,(1,1,1,1,1,1,1,1,1,1,1,1,1,1,1,1,1,1,1,1,1,1,
1,1,1,1,1,1,1,1,1,1,1,1,1),(4,1,1,1,1,1,1,1,1,1,1,1,1,1,4),(-0.125,-0.0625,
-0.03125,0.,0.03125,0.0625,0.125,0.15625,0.1875,0.21875,0.25,0.28125,0.3125,
0.34375,0.375,0.4375,0.46875,0.5,0.53125,0.5625,0.625,0.65625,0.6875,0.71875,
0.75,0.78125,0.8125,0.84375,0.875,0.9375,0.96875,1.,1.03125,1.0625,1.125),
(-2.20087539327554E-17,0.125,0.1875,0.25,0.3125,0.375,0.4375,0.5,0.5625,
0.625,0.6875,0.75,0.8125,0.875,1.),.UNSPECIFIED.);
#13=CIRCLE('',#116,5.);
#14=CIRCLE('',#118,3.);
#15=CYLINDRICAL_SURFACE('',#115,5.);
#16=CYLINDRICAL_SURFACE('',#119,3.);
#17=PLANE('',#113);
#18=PLANE('',#114);
#19=PLANE('',#117);
#20=B_SPLINE_CURVE_WITH_KNOTS('',3,(#237,#238,#239,#240,#241,#242,#243,
#244,#245,#246,#247,#248,#249),.UNSPECIFIED.,.T.,.F.,(1,1,1,1,1,1,1,1,1,
1,1,1,1,1,1,1,1),(-0.00588102832478739,-0.00392068554985826,-0.00196034277492913,
0.,0.00392068554985826,0.00784137109971652,0.0117620566495748,0.015682742199433,
0.0196034277492913,0.0235241132991496,0.0254844560740787,0.0274447988490078,
0.029405141623937,0.0313654843988661,0.0352861699487244,0.0392068554985826,
0.0431275410484409),.UNSPECIFIED.);
#21=B_SPLINE_CURVE_WITH_KNOTS('',3,(#252,#253,#254,#255,#256,#257,#258,
#259,#260,#261,#262,#263,#264,#265,#266,#267,#268,#269,#270,#271,#272,#273,
#274),.UNSPECIFIED.,.T.,.F.,(1,1,1,1,1,1,1,1,1,1,1,1,1,1,1,1,1,1,1,1,1,
1,1,1,1,1,1),(-0.00539461951726062,-0.00269730975863031,-0.00134865487931516,
0.,0.00134865487931515,0.00269730975863031,0.00539461951726062,0.00809192927589093,
0.0107892390345212,0.0134865487931515,0.0161838585517819,0.0188811683104122,
0.0202298231897273,0.0215784780690425,0.0229271329483576,0.0242757878276728,
0.0269730975863031,0.0296704073449334,0.0323677171035637,0.035065026862194,
0.0377623366208243,0.0404596463794546,0.0418083012587698,0.0431569561380849,
0.0445056110174001,0.0458542658967152,0.0485515756553456),.UNSPECIFIED.);
#22=B_SPLINE_CURVE_WITH_KNOTS('',3,(#277,#278,#279,#280,#281,#282,#283,
#284,#285,#286,#287,#288,#289,#290,#291,#292,#293,#294,#295,#296,#297,#298,
#299),.UNSPECIFIED.,.T.,.F.,(1,1,1,1,1,1,1,1,1,1,1,1,1,1,1,1,1,1,1,1,1,
1,1,1,1,1,1),(-0.00539461951726063,-0.00269730975863031,-0.00134865487931516,
0.,0.00134865487931516,0.00269730975863031,0.00539461951726063,0.00809192927589094,
0.0107892390345213,0.0134865487931516,0.0161838585517819,0.0188811683104122,
0.0202298231897274,0.0215784780690425,0.0229271329483577,0.0242757878276728,
0.0269730975863031,0.0296704073449335,0.0323677171035638,0.0350650268621941,
0.0377623366208244,0.0404596463794547,0.0418083012587699,0.043156956138085,
0.0445056110174002,0.0458542658967153,0.0485515756553456),.UNSPECIFIED.);
#23=B_SPLINE_CURVE_WITH_KNOTS('',3,(#834,#835,#836,#837,#838,#839,#840,
#841,#842,#843,#844),.UNSPECIFIED.,.T.,.F.,(1,1,1,1,1,1,1,1,1,1,1,1,1,1,
1),(-0.00704610457655043,-0.00469740305103362,-0.00234870152551681,1.68051336735253E-18,
0.00234870152551681,0.00469740305103362,0.00704610457655043,0.00939480610206724,
0.011743507627584,0.0140922091531009,0.0164409106786177,0.0187896122041345,
0.0211383137296513,0.0234870152551681,0.0258357167806849),.UNSPECIFIED.);
#24=ORIENTED_EDGE('',*,*,#40,.T.);
#25=ORIENTED_EDGE('',*,*,#41,.F.);
#26=ORIENTED_EDGE('',*,*,#42,.T.);
#27=ORIENTED_EDGE('',*,*,#43,.F.);
#28=ORIENTED_EDGE('',*,*,#41,.T.);
#29=ORIENTED_EDGE('',*,*,#44,.T.);
#30=ORIENTED_EDGE('',*,*,#40,.F.);
#31=ORIENTED_EDGE('',*,*,#42,.F.);
#32=ORIENTED_EDGE('',*,*,#45,.F.);
#33=ORIENTED_EDGE('',*,*,#46,.F.);
#34=ORIENTED_EDGE('',*,*,#45,.T.);
#35=ORIENTED_EDGE('',*,*,#44,.F.);
#36=ORIENTED_EDGE('',*,*,#43,.T.);
#37=ORIENTED_EDGE('',*,*,#47,.F.);
#38=ORIENTED_EDGE('',*,*,#47,.T.);
#39=ORIENTED_EDGE('',*,*,#46,.T.);
#40=EDGE_CURVE('',#48,#48,#56,.T.);
#41=EDGE_CURVE('',#49,#49,#57,.T.);
#42=EDGE_CURVE('',#50,#50,#20,.T.);
#43=EDGE_CURVE('',#51,#51,#21,.T.);
#44=EDGE_CURVE('',#52,#52,#22,.T.);
#45=EDGE_CURVE('',#53,#53,#13,.T.);
#46=EDGE_CURVE('',#54,#54,#14,.T.);
#47=EDGE_CURVE('',#55,#55,#23,.T.);
#48=VERTEX_POINT('',#234);
#49=VERTEX_POINT('',#236);
#50=VERTEX_POINT('',#250);
#51=VERTEX_POINT('',#275);
#52=VERTEX_POINT('',#300);
#53=VERTEX_POINT('',#303);
#54=VERTEX_POINT('',#306);
#55=VERTEX_POINT('',#845);
#56=ELLIPSE('',#111,10.,7.5);
#57=ELLIPSE('',#112,10.,7.5);
#58=EDGE_LOOP('',(#24));
#59=EDGE_LOOP('',(#25));
#60=EDGE_LOOP('',(#26));
#61=EDGE_LOOP('',(#27));
#62=EDGE_LOOP('',(#28));
#63=EDGE_LOOP('',(#29));
#64=EDGE_LOOP('',(#30));
#65=EDGE_LOOP('',(#31));
#66=EDGE_LOOP('',(#32));
#67=EDGE_LOOP('',(#33));
#68=EDGE_LOOP('',(#34));
#69=EDGE_LOOP('',(#35));
#70=EDGE_LOOP('',(#36));
#71=EDGE_LOOP('',(#37));
#72=EDGE_LOOP('',(#38));
#73=EDGE_LOOP('',(#39));
#74=FACE_BOUND('',#58,.T.);
#75=FACE_BOUND('',#59,.T.);
#76=FACE_BOUND('',#60,.T.);
#77=FACE_BOUND('',#61,.T.);
#78=FACE_BOUND('',#62,.T.);
#79=FACE_BOUND('',#63,.T.);
#80=FACE_BOUND('',#64,.T.);
#81=FACE_BOUND('',#65,.T.);
#82=FACE_BOUND('',#66,.T.);
#83=FACE_BOUND('',#67,.T.);
#84=FACE_BOUND('',#68,.T.);
#85=FACE_BOUND('',#69,.T.);
#86=FACE_BOUND('',#70,.T.);
#87=FACE_BOUND('',#71,.T.);
#88=FACE_BOUND('',#72,.T.);
#89=FACE_BOUND('',#73,.T.);
#90=(
BOUNDED_SURFACE()
B_SPLINE_SURFACE(3,3,((#141,#142,#143,#144),(#145,#146,#147,#148),(#149,
#150,#151,#152),(#153,#154,#155,#156),(#157,#158,#159,#160),(#161,#162,
#163,#164),(#165,#166,#167,#168),(#169,#170,#171,#172),(#173,#174,#175,
#176),(#177,#178,#179,#180),(#181,#182,#183,#184),(#185,#186,#187,#188),
(#189,#190,#191,#192),(#193,#194,#195,#196),(#197,#198,#199,#200),(#201,
#202,#203,#204),(#205,#206,#207,#208),(#209,#210,#211,#212),(#213,#214,
#215,#216),(#217,#218,#219,#220),(#221,#222,#223,#224),(#225,#226,#227,
#228),(#229,#230,#231,#232)),.SURF_OF_REVOLUTION.,.T.,.F.,.F.)
B_SPLINE_SURFACE_WITH_KNOTS((1,1,1,1,1,1,1,1,1,1,1,1,1,1,1,1,1,1,1,1,1,
1,1,1,1,1,1),(4,4),(-0.125,-0.0625,-0.03125,0.,0.03125,0.0625,0.125,0.1875,
0.25,0.3125,0.375,0.4375,0.46875,0.5,0.53125,0.5625,0.625,0.6875,0.75,0.8125,
0.875,0.9375,0.96875,1.,1.03125,1.0625,1.125),(0.,1.),.UNSPECIFIED.)
GEOMETRIC_REPRESENTATION_ITEM()
RATIONAL_B_SPLINE_SURFACE(((1.,0.333333333333333,0.333333333333333,1.),
(1.,0.333333333333333,0.333333333333333,1.),(1.,0.333333333333333,0.333333333333333,
1.),(1.,0.333333333333333,0.333333333333333,1.),(1.,0.333333333333333,0.333333333333333,
1.),(1.,0.333333333333333,0.333333333333333,1.),(1.,0.333333333333333,0.333333333333333,
1.),(1.,0.333333333333333,0.333333333333333,1.),(1.,0.333333333333333,0.333333333333333,
1.),(1.,0.333333333333333,0.333333333333333,1.),(1.,0.333333333333333,0.333333333333333,
1.),(1.,0.333333333333333,0.333333333333333,1.),(1.,0.333333333333333,0.333333333333333,
1.),(1.,0.333333333333333,0.333333333333333,1.),(1.,0.333333333333333,0.333333333333333,
1.),(1.,0.333333333333333,0.333333333333333,1.),(1.,0.333333333333333,0.333333333333333,
1.),(1.,0.333333333333333,0.333333333333333,1.),(1.,0.333333333333333,0.333333333333333,
1.),(1.,0.333333333333333,0.333333333333333,1.),(1.,0.333333333333333,0.333333333333333,
1.),(1.,0.333333333333333,0.333333333333333,1.),(1.,0.333333333333333,0.333333333333333,
1.)))
REPRESENTATION_ITEM('')
SURFACE()
);
#91=ADVANCED_FACE('',(#74,#75,#76),#90,.T.);
#92=ADVANCED_FACE('',(#77,#78),#17,.T.);
#93=ADVANCED_FACE('',(#79,#80),#18,.F.);
#94=ADVANCED_FACE('',(#81,#82),#15,.T.);
#95=ADVANCED_FACE('',(#83,#84),#19,.T.);
#96=ADVANCED_FACE('',(#85,#86,#87),#12,.F.);
#97=ADVANCED_FACE('',(#88,#89),#16,.F.);
#98=CLOSED_SHELL('',(#91,#92,#93,#94,#95,#96,#97));
#99=STYLED_ITEM('',(#100),#107);
#100=PRESENTATION_STYLE_ASSIGNMENT((#101));
#101=SURFACE_STYLE_USAGE(.BOTH.,#102);
#102=SURFACE_SIDE_STYLE('',(#103));
#103=SURFACE_STYLE_FILL_AREA(#104);
#104=FILL_AREA_STYLE('',(#105));
#105=FILL_AREA_STYLE_COLOUR('',#106);
#106=COLOUR_RGB('',0.615686274509804,0.811764705882353,0.929411764705882);
#107=MANIFOLD_SOLID_BREP('Part 1',#98);
#108=SHAPE_DEFINITION_REPRESENTATION(#853,#109);
#109=SHAPE_REPRESENTATION('Part 1',(#110),#848);
#110=AXIS2_PLACEMENT_3D('',#140,#120,#121);
#111=AXIS2_PLACEMENT_3D('',#233,#122,#123);
#112=AXIS2_PLACEMENT_3D('',#235,#124,#125);
#113=AXIS2_PLACEMENT_3D('',#251,#126,#127);
#114=AXIS2_PLACEMENT_3D('',#276,#128,#129);
#115=AXIS2_PLACEMENT_3D('',#301,#130,#131);
#116=AXIS2_PLACEMENT_3D('',#302,#132,#133);
#117=AXIS2_PLACEMENT_3D('',#304,#134,#135);
#118=AXIS2_PLACEMENT_3D('',#305,#136,#137);
#119=AXIS2_PLACEMENT_3D('',#846,#138,#139);
#120=DIRECTION('',(0.,0.,1.));
#121=DIRECTION('',(1.,0.,0.));
#122=DIRECTION('',(0.,1.,0.));
#123=DIRECTION('',(1.,0.,0.));
#124=DIRECTION('',(0.,-1.,1.22464679914735E-16));
#125=DIRECTION('',(1.,0.,0.));
#126=DIRECTION('',(0.,-1.,1.22464679914735E-16));
#127=DIRECTION('',(1.,0.,0.));
#128=DIRECTION('',(0.,1.,0.));
#129=DIRECTION('',(1.,0.,0.));
#130=DIRECTION('',(0.,-1.,0.));
#131=DIRECTION('',(-1.,0.,0.));
#132=DIRECTION('',(0.,1.,0.));
#133=DIRECTION('',(1.,0.,0.));
#134=DIRECTION('',(0.,1.,0.));
#135=DIRECTION('',(1.,0.,0.));
#136=DIRECTION('',(0.,1.,0.));
#137=DIRECTION('',(1.,0.,0.));
#138=DIRECTION('',(0.,-1.,0.));
#139=DIRECTION('',(-1.,0.,0.));
#140=CARTESIAN_POINT('',(0.,0.,0.));
#141=CARTESIAN_POINT('',(9.9483181247512,-1.62903646369156E-14,-21.527999619663));
#142=CARTESIAN_POINT('',(9.94831812475121,43.0559992393261,-21.5279996196631));
#143=CARTESIAN_POINT('',(9.94831812475121,43.0559992393261,21.527999619663));
#144=CARTESIAN_POINT('',(9.9483181247512,-5.52895454737359E-15,21.527999619663));
#145=CARTESIAN_POINT('',(10.0258409376244,-1.62302944031107E-14,-22.5));
#146=CARTESIAN_POINT('',(10.0258409376244,45.,-22.5));
#147=CARTESIAN_POINT('',(10.0258409376244,45.,22.5));
#148=CARTESIAN_POINT('',(10.0258409376244,-5.48413110704054E-15,22.5));
#149=CARTESIAN_POINT('',(9.94831812475121,-1.73219325346521E-14,-23.472000380337));
#150=CARTESIAN_POINT('',(9.94831812475121,46.9440007606739,-23.472000380337));
#151=CARTESIAN_POINT('',(9.94831812475121,46.9440007606739,23.472000380337));
#152=CARTESIAN_POINT('',(9.94831812475121,-4.25931521872719E-15,23.472000380337));
#153=CARTESIAN_POINT('',(9.55044477447407,-1.8512559100523E-14,-24.9565996146687));
#154=CARTESIAN_POINT('',(9.55044477447408,49.9131992293374,-24.9565996146687));
#155=CARTESIAN_POINT('',(9.55044477447408,49.9131992293374,24.9565996146687));
#156=CARTESIAN_POINT('',(9.55044477447407,-2.81429593365693E-15,24.9565996146687));
#157=CARTESIAN_POINT('',(8.30440640597728,-2.02716916620285E-14,-27.0306015662968));
#158=CARTESIAN_POINT('',(8.30440640597728,54.0612031325935,-27.0306015662968));
#159=CARTESIAN_POINT('',(8.30440640597728,54.0612031325935,27.0306015662967));
#160=CARTESIAN_POINT('',(8.30440640597728,-5.73863767003647E-16,27.0306015662968));
#161=CARTESIAN_POINT('',(4.98272192791744,-2.20142633381519E-14,-29.3357945104698));
#162=CARTESIAN_POINT('',(4.98272192791745,58.6715890209396,-29.3357945104698));
#163=CARTESIAN_POINT('',(4.98272192791745,58.6715890209396,29.3357945104698));
#164=CARTESIAN_POINT('',(4.98272192791745,2.05696843855787E-15,29.3357945104698));
#165=CARTESIAN_POINT('',(1.52465930505774E-17,-2.2491570300525E-14,-30.3321027447651));
#166=CARTESIAN_POINT('',(5.54855781266928E-15,60.6642054895301,-30.3321027447651));
#167=CARTESIAN_POINT('',(6.19564387542334E-15,60.6642054895301,30.332102744765));
#168=CARTESIAN_POINT('',(6.62332655804637E-16,3.56525730121249E-15,30.3321027447651));
#169=CARTESIAN_POINT('',(-4.98272192791744,-2.12115922724918E-14,-29.3357945104698));
#170=CARTESIAN_POINT('',(-4.98272192791744,58.6715890209396,-29.3357945104698));
#171=CARTESIAN_POINT('',(-4.98272192791744,58.6715890209396,29.3357945104698));
#172=CARTESIAN_POINT('',(-4.98272192791744,3.07223603544201E-15,29.3357945104698));
#173=CARTESIAN_POINT('',(-8.30440640597728,-1.89339275170512E-14,-27.0306015662968));
#174=CARTESIAN_POINT('',(-8.30440640597727,54.0612031325935,-27.0306015662968));
#175=CARTESIAN_POINT('',(-8.30440640597727,54.0612031325935,27.0306015662967));
#176=CARTESIAN_POINT('',(-8.30440640597728,1.11822237733986E-15,27.0306015662968));
#177=CARTESIAN_POINT('',(-9.55044477447407,-1.69740695368762E-14,-24.9565996146687));
#178=CARTESIAN_POINT('',(-9.55044477447407,49.9131992293374,-24.9565996146687));
#179=CARTESIAN_POINT('',(-9.55044477447407,49.9131992293374,24.9565996146687));
#180=CARTESIAN_POINT('',(-9.55044477447407,-8.68319967984807E-16,24.9565996146687));
#181=CARTESIAN_POINT('',(-9.94831812475121,-1.57193492024417E-14,-23.472000380337));
#182=CARTESIAN_POINT('',(-9.9483181247512,46.9440007606739,-23.472000380337));
#183=CARTESIAN_POINT('',(-9.9483181247512,46.9440007606739,23.4720003803369));
#184=CARTESIAN_POINT('',(-9.94831812475121,-2.23226952328809E-15,23.472000380337));
#185=CARTESIAN_POINT('',(-10.0258409376244,-1.4615222852669E-14,-22.5));
#186=CARTESIAN_POINT('',(-10.0258409376244,45.,-22.5));
#187=CARTESIAN_POINT('',(-10.0258409376244,45.,22.5));
#188=CARTESIAN_POINT('',(-10.0258409376244,-3.44128954719882E-15,22.5));
#189=CARTESIAN_POINT('',(-9.94831812475121,-1.46877813047053E-14,-21.527999619663));
#190=CARTESIAN_POINT('',(-9.94831812475121,43.0559992393261,-21.5279996196631));
#191=CARTESIAN_POINT('',(-9.94831812475121,43.0559992393261,21.527999619663));
#192=CARTESIAN_POINT('',(-9.94831812475121,-3.50190885193451E-15,21.527999619663));
#193=CARTESIAN_POINT('',(-9.55044477447407,-1.43669210713525E-14,-20.0434003853313));
#194=CARTESIAN_POINT('',(-9.55044477447407,40.0868007706625,-20.0434003853313));
#195=CARTESIAN_POINT('',(-9.55044477447407,40.0868007706625,20.0434003853313));
#196=CARTESIAN_POINT('',(-9.55044477447407,-4.07716180448668E-15,20.0434003853313));
#197=CARTESIAN_POINT('',(-8.30440640597728,-1.41256751461971E-14,-17.9693984337032));
#198=CARTESIAN_POINT('',(-8.30440640597728,35.9387968674065,-17.9693984337033));
#199=CARTESIAN_POINT('',(-8.30440640597728,35.9387968674065,17.9693984337032));
#200=CARTESIAN_POINT('',(-8.30440640597728,-4.79970733478971E-15,17.9693984337032));
#201=CARTESIAN_POINT('',(-4.98272192791745,-1.39568768267229E-14,-15.6642054895302));
#202=CARTESIAN_POINT('',(-4.98272192791745,31.3284109790603,-15.6642054895302));
#203=CARTESIAN_POINT('',(-4.98272192791745,31.3284109790603,15.6642054895302));
#204=CARTESIAN_POINT('',(-4.98272192791745,-5.8567661837021E-15,15.6642054895302));
#205=CARTESIAN_POINT('',(-6.30192512757199E-16,-1.41794894343915E-14,-14.6678972552349));
#206=CARTESIAN_POINT('',(2.04558770378626E-15,29.3357945104698,-14.6678972552349));
#207=CARTESIAN_POINT('',(2.35850342755385E-15,29.3357945104698,14.6678972552349));
#208=CARTESIAN_POINT('',(-3.1727678898961E-16,-6.66513547631495E-15,14.6678972552349));
#209=CARTESIAN_POINT('',(4.98272192791745,-1.4759547892383E-14,-15.6642054895302));
#210=CARTESIAN_POINT('',(4.98272192791745,31.3284109790603,-15.6642054895302));
#211=CARTESIAN_POINT('',(4.98272192791745,31.3284109790604,15.6642054895302));
#212=CARTESIAN_POINT('',(4.98272192791745,-6.87203378058623E-15,15.6642054895302));
#213=CARTESIAN_POINT('',(8.30440640597728,-1.54634392911744E-14,-17.9693984337032));
#214=CARTESIAN_POINT('',(8.30440640597728,35.9387968674065,-17.9693984337032));
#215=CARTESIAN_POINT('',(8.30440640597728,35.9387968674065,17.9693984337032));
#216=CARTESIAN_POINT('',(8.30440640597728,-6.49179347913323E-15,17.9693984337032));
#217=CARTESIAN_POINT('',(9.55044477447408,-1.59054106349992E-14,-20.0434003853313));
#218=CARTESIAN_POINT('',(9.55044477447408,40.0868007706625,-20.0434003853313));
#219=CARTESIAN_POINT('',(9.55044477447408,40.0868007706625,20.0434003853313));
#220=CARTESIAN_POINT('',(9.55044477447408,-6.02313777015882E-15,20.0434003853313));
#221=CARTESIAN_POINT('',(9.9483181247512,-1.62903646369156E-14,-21.527999619663));
#222=CARTESIAN_POINT('',(9.94831812475121,43.0559992393261,-21.5279996196631));
#223=CARTESIAN_POINT('',(9.94831812475121,43.0559992393261,21.527999619663));
#224=CARTESIAN_POINT('',(9.9483181247512,-5.52895454737359E-15,21.527999619663));
#225=CARTESIAN_POINT('',(10.0258409376244,-1.62302944031107E-14,-22.5));
#226=CARTESIAN_POINT('',(10.0258409376244,45.,-22.5));
#227=CARTESIAN_POINT('',(10.0258409376244,45.,22.5));
#228=CARTESIAN_POINT('',(10.0258409376244,-5.48413110704054E-15,22.5));
#229=CARTESIAN_POINT('',(9.94831812475121,-1.73219325346521E-14,-23.472000380337));
#230=CARTESIAN_POINT('',(9.94831812475121,46.9440007606739,-23.472000380337));
#231=CARTESIAN_POINT('',(9.94831812475121,46.9440007606739,23.472000380337));
#232=CARTESIAN_POINT('',(9.94831812475121,-4.25931521872719E-15,23.472000380337));
#233=CARTESIAN_POINT('',(0.,0.,-22.5));
#234=CARTESIAN_POINT('',(10.,0.,-22.5));
#235=CARTESIAN_POINT('',(0.,2.75545529808154E-15,22.5));
#236=CARTESIAN_POINT('',(10.,2.75545529808154E-15,22.5));
#237=CARTESIAN_POINT('',(-4.73397650612566,29.0688586921372,1.97648452260795));
#238=CARTESIAN_POINT('',(-5.26801716008387,28.9185181838221,-0.663152729688678));
#239=CARTESIAN_POINT('',(-3.91796302861682,29.3169008106639,-3.91404804584149));
#240=CARTESIAN_POINT('',(-0.00501157942698374,29.7118176019548,-5.54234920672837));
#241=CARTESIAN_POINT('',(3.92014497882502,29.3182211506768,-3.91654980831749));
#242=CARTESIAN_POINT('',(5.53963319561489,28.83350920624,-0.00265671148561747));
#243=CARTESIAN_POINT('',(3.92131943081792,29.3188859263173,3.91419690684695));
#244=CARTESIAN_POINT('',(0.662265334306742,29.6413407231539,5.26643893776053));
#245=CARTESIAN_POINT('',(-1.96779324286958,29.5230057449077,4.73756809491169));
#246=CARTESIAN_POINT('',(-3.62547518690174,29.3070619370369,3.62716986875388));
#247=CARTESIAN_POINT('',(-4.73397650612566,29.0688586921372,1.97648452260795));
#248=CARTESIAN_POINT('',(-5.26801716008387,28.9185181838221,-0.663152729688678));
#249=CARTESIAN_POINT('',(-3.91796302861682,29.3169008106639,-3.91404804584149));
#250=CARTESIAN_POINT('',(-5.,28.9951905283833,8.90185470546341E-15));
#251=CARTESIAN_POINT('',(0.,0.,0.));
#252=CARTESIAN_POINT('',(-7.82858869468649,3.23060199246304E-15,23.8406510137068));
#253=CARTESIAN_POINT('',(-8.08591149164259,2.5372253292821E-15,22.5010742402745));
#254=CARTESIAN_POINT('',(-7.82776533874316,3.15322847889784E-15,21.1550520251952));
#255=CARTESIAN_POINT('',(-6.9279664550566,2.72499793879481E-15,19.5888592279967));
#256=CARTESIAN_POINT('',(-5.16534874865066,1.4692005760372E-15,18.1635302035871));
#257=CARTESIAN_POINT('',(-2.65734598419573,2.676508211946E-15,17.205751398645));
#258=CARTESIAN_POINT('',(0.00649796678366055,2.47261261409432E-15,16.8963328672482));
#259=CARTESIAN_POINT('',(2.6674327190444,1.88375522936386E-15,17.2089267034334));
#260=CARTESIAN_POINT('',(5.16844656247201,2.66910541838368E-15,18.1646969520946));
#261=CARTESIAN_POINT('',(6.93780273834004,2.30884252458573E-15,19.5987284453129));
#262=CARTESIAN_POINT('',(7.83160721913299,2.67059259380519E-15,21.1665773847643));
#263=CARTESIAN_POINT('',(8.08501619755566,2.78231860560047E-15,22.5063478131495));
#264=CARTESIAN_POINT('',(7.82830068708787,2.73178581114813E-15,23.8424944511177));
#265=CARTESIAN_POINT('',(6.92647342604669,3.21064012620152E-15,25.4142141130781));
#266=CARTESIAN_POINT('',(5.16446629886245,3.07110493439481E-15,26.8365427837862));
#267=CARTESIAN_POINT('',(2.65364901429972,4.38659555276732E-15,27.7953867828862));
#268=CARTESIAN_POINT('',(-0.00526977937534139,2.18092031228177E-15,28.1025811057544));
#269=CARTESIAN_POINT('',(-2.65430262479688,1.34104391103789E-15,27.7942853212175));
#270=CARTESIAN_POINT('',(-5.16589778523723,4.20177641277416E-15,26.8373737927677));
#271=CARTESIAN_POINT('',(-6.9333199774033,1.4810616904256E-15,25.4056167775774));
#272=CARTESIAN_POINT('',(-7.82858869468649,3.23060199246304E-15,23.8406510137068));
#273=CARTESIAN_POINT('',(-8.08591149164259,2.5372253292821E-15,22.5010742402745));
#274=CARTESIAN_POINT('',(-7.82776533874316,3.15322847889784E-15,21.1550520251952));
#275=CARTESIAN_POINT('',(-8.,2.75545529808154E-15,22.5));
#276=CARTESIAN_POINT('',(0.,0.,0.));
#277=CARTESIAN_POINT('',(-7.82858869468648,-8.58530316039263E-16,-23.8406510137068));
#278=CARTESIAN_POINT('',(-8.08591149164259,2.2224480492779E-16,-22.5010742402745));
#279=CARTESIAN_POINT('',(-7.82776533874315,-3.04489036718991E-17,-21.1550520251952));
#280=CARTESIAN_POINT('',(-6.9279664550566,8.01734974104766E-16,-19.5888592279967));
#281=CARTESIAN_POINT('',(-5.16534874865064,1.24233932857852E-15,-18.1635302035871));
#282=CARTESIAN_POINT('',(-2.65734598419573,3.78617448818524E-16,-17.205751398645));
#283=CARTESIAN_POINT('',(0.00649796678365412,1.06808897189969E-15,-16.8963328672482));
#284=CARTESIAN_POINT('',(2.66743271904443,-4.87294033952737E-16,-17.2089267034334));
#285=CARTESIAN_POINT('',(5.168446562472,8.81087163911259E-16,-18.1646969520947));
#286=CARTESIAN_POINT('',(6.93780273834004,3.36174279663938E-16,-19.5987284453129));
#287=CARTESIAN_POINT('',(7.83160721913299,2.12945270291323E-16,-21.1665773847643));
#288=CARTESIAN_POINT('',(8.08501619755566,-1.04135099336227E-16,-22.5063478131495));
#289=CARTESIAN_POINT('',(7.82830068708787,1.94802821024536E-16,-23.8424944511177));
#290=CARTESIAN_POINT('',(6.92647342604669,-5.55611758260024E-16,-25.4142141130781));
#291=CARTESIAN_POINT('',(5.16446629886241,4.40273427370905E-16,-26.8365427837862));
#292=CARTESIAN_POINT('',(2.65364901429973,-7.31966627080514E-16,-27.7953867828862));
#293=CARTESIAN_POINT('',(-0.00526977937536536,7.5384897919905E-16,-28.1025811057544));
#294=CARTESIAN_POINT('',(-2.65430262479687,-2.02187547198778E-16,-27.7942853212175));
#295=CARTESIAN_POINT('',(-5.16589778523721,-2.43145342734385E-15,-26.8373737927677));
#296=CARTESIAN_POINT('',(-6.9333199774033,6.15140952480892E-16,-25.4056167775774));
#297=CARTESIAN_POINT('',(-7.82858869468648,-8.58530316039263E-16,-23.8406510137068));
#298=CARTESIAN_POINT('',(-8.08591149164259,2.2224480492779E-16,-22.5010742402745));
#299=CARTESIAN_POINT('',(-7.82776533874315,-3.04489036718991E-17,-21.1550520251952));
#300=CARTESIAN_POINT('',(-8.,0.,-22.5));
#301=CARTESIAN_POINT('',(0.,52.5,-3.06161699786839E-16));
#302=CARTESIAN_POINT('',(0.,52.5,-3.06161699786839E-16));
#303=CARTESIAN_POINT('',(5.,52.5,-3.06161699786839E-16));
#304=CARTESIAN_POINT('',(0.,52.5,0.));
#305=CARTESIAN_POINT('',(0.,52.5,-3.06161699786839E-16));
#306=CARTESIAN_POINT('',(3.,52.5,-3.06161699786839E-16));
#307=CARTESIAN_POINT('',(7.96688511027229,4.03782270643482E-17,-21.873631773977));
#308=CARTESIAN_POINT('',(7.96688511027229,1.8189308970039,-21.8716335338717));
#309=CARTESIAN_POINT('',(7.96688511027229,4.91742448886053,-21.5422919265525));
#310=CARTESIAN_POINT('',(7.96688511027229,9.5695491504675,-19.8006326443407));
#311=CARTESIAN_POINT('',(7.96688511027228,13.1517953293804,-17.6607412099972));
#312=CARTESIAN_POINT('',(7.96688511027228,16.5683439183283,-14.5498350307601));
#313=CARTESIAN_POINT('',(7.9668851102723,19.4556301673398,-10.435890597173));
#314=CARTESIAN_POINT('',(7.96688511027229,21.4107153921911,-5.46744523648288));
#315=CARTESIAN_POINT('',(7.96688511027229,22.10508996487,-6.4099069537022E-16));
#316=CARTESIAN_POINT('',(7.96688511027229,21.4107153921911,5.46744523648288));
#317=CARTESIAN_POINT('',(7.96688511027229,19.4556301673398,10.435890597173));
#318=CARTESIAN_POINT('',(7.96688511027229,16.5683439183283,14.5498350307601));
#319=CARTESIAN_POINT('',(7.9668851102723,13.1517953293804,17.6607412099973));
#320=CARTESIAN_POINT('',(7.9668851102723,9.5695491504675,19.8006326443407));
#321=CARTESIAN_POINT('',(7.9668851102723,4.91742448886053,21.5422919265525));
#322=CARTESIAN_POINT('',(7.96688511027228,1.8189308970039,21.8716335338716));
#323=CARTESIAN_POINT('',(7.96688511027229,2.66835794481781E-15,21.873631773977));
#324=CARTESIAN_POINT('',(8.01655744486385,-8.68271240397241E-18,-22.5));
#325=CARTESIAN_POINT('',(8.01655744486386,1.87101737861736,-22.4979445387562));
#326=CARTESIAN_POINT('',(8.01655744486385,5.05823871146045,-22.1591719818598));
#327=CARTESIAN_POINT('',(8.01655744486385,9.84358053159136,-20.3676389500024));
#328=CARTESIAN_POINT('',(8.01655744486386,13.5284070779279,-18.1664700828366));
#329=CARTESIAN_POINT('',(8.01655744486386,17.0427911566971,-14.9664807186511));
#330=CARTESIAN_POINT('',(8.01655744486385,20.0127570624068,-10.73473033023));
#331=CARTESIAN_POINT('',(8.01655744486386,22.0238276524991,-5.62400972513481));
#332=CARTESIAN_POINT('',(8.01655744486385,22.7380861737504,1.11715768737938E-15));
#333=CARTESIAN_POINT('',(8.01655744486386,22.0238276524992,5.62400972513481));
#334=CARTESIAN_POINT('',(8.01655744486385,20.0127570624068,10.73473033023));
#335=CARTESIAN_POINT('',(8.01655744486386,17.0427911566971,14.9664807186511));
#336=CARTESIAN_POINT('',(8.01655744486386,13.5284070779279,18.1664700828366));
#337=CARTESIAN_POINT('',(8.01655744486385,9.84358053159136,20.3676389500024));
#338=CARTESIAN_POINT('',(8.01655744486386,5.05823871146045,22.1591719818598));
#339=CARTESIAN_POINT('',(8.01655744486386,1.87101737861736,22.4979445387562));
#340=CARTESIAN_POINT('',(8.01655744486385,2.77892592248702E-15,22.5));
#341=CARTESIAN_POINT('',(7.96688511027229,-5.64737744845853E-18,-23.126368226023));
#342=CARTESIAN_POINT('',(7.96688511027229,1.92310386023081,-23.1242555436409));
#343=CARTESIAN_POINT('',(7.96688511027229,5.19905293406036,-22.7760520371671));
#344=CARTESIAN_POINT('',(7.9668851102723,10.1176119127152,-20.9346452556641));
#345=CARTESIAN_POINT('',(7.96688511027228,13.9050188264753,-18.6721989556759));
#346=CARTESIAN_POINT('',(7.96688511027229,17.5172383950661,-15.3831264065422));
#347=CARTESIAN_POINT('',(7.96688511027229,20.5698839574738,-11.0335700632869));
#348=CARTESIAN_POINT('',(7.96688511027229,22.6369399128072,-5.78057421378675));
#349=CARTESIAN_POINT('',(7.96688511027229,23.3710823826308,-6.90120544710994E-16));
#350=CARTESIAN_POINT('',(7.96688511027229,22.6369399128072,5.78057421378674));
#351=CARTESIAN_POINT('',(7.96688511027229,20.5698839574738,11.0335700632869));
#352=CARTESIAN_POINT('',(7.96688511027229,17.517238395066,15.3831264065422));
#353=CARTESIAN_POINT('',(7.96688511027229,13.9050188264753,18.6721989556759));
#354=CARTESIAN_POINT('',(7.96688511027229,10.1176119127152,20.9346452556641));
#355=CARTESIAN_POINT('',(7.96688511027229,5.19905293406036,22.7760520371671));
#356=CARTESIAN_POINT('',(7.96688511027229,1.92310386023081,23.1242555436408));
#357=CARTESIAN_POINT('',(7.96688511027229,2.74867015372339E-15,23.126368226023));
#358=CARTESIAN_POINT('',(7.70676863873293,4.35787554132282E-17,-24.1025316067096));
#359=CARTESIAN_POINT('',(7.70676863873295,2.00427802243679,-24.100329748061));
#360=CARTESIAN_POINT('',(7.70676863873291,5.41850481854476,-23.7374285809462));
#361=CARTESIAN_POINT('',(7.70676863873293,10.5446760393721,-21.8182960687325));
#362=CARTESIAN_POINT('',(7.70676863873294,14.4919492970751,-19.4603519712851));
#363=CARTESIAN_POINT('',(7.70676863873292,18.2566405564819,-16.0324477583333));
#364=CARTESIAN_POINT('',(7.70676863873293,21.4381382059582,-11.4992967588388));
#365=CARTESIAN_POINT('',(7.70676863873292,23.5924445375593,-6.02457209584462));
#366=CARTESIAN_POINT('',(7.70676863873294,24.3575751412847,2.42113950352312E-15));
#367=CARTESIAN_POINT('',(7.70676863873292,23.5924445375593,6.02457209584461));
#368=CARTESIAN_POINT('',(7.70676863873293,21.4381382059582,11.4992967588388));
#369=CARTESIAN_POINT('',(7.70676863873293,18.2566405564819,16.0324477583333));
#370=CARTESIAN_POINT('',(7.70676863873293,14.4919492970751,19.4603519712851));
#371=CARTESIAN_POINT('',(7.70676863873293,10.5446760393721,21.8182960687325));
#372=CARTESIAN_POINT('',(7.70676863873291,5.41850481854476,23.7374285809462));
#373=CARTESIAN_POINT('',(7.70676863873294,2.0042780224368,24.100329748061));
#374=CARTESIAN_POINT('',(7.70676863873293,3.32266594755169E-15,24.1025316067096));
#375=CARTESIAN_POINT('',(7.01696697078925,6.8057546224865E-17,-25.2780955812223));
#376=CARTESIAN_POINT('',(7.01696697078924,2.10203360581411,-25.2757863302986));
#377=CARTESIAN_POINT('',(7.01696697078925,5.6827840720416,-24.8951852159198));
#378=CARTESIAN_POINT('',(7.01696697078925,11.0589764239567,-22.8824499618661));
#379=CARTESIAN_POINT('',(7.01696697078925,15.1987718745576,-20.409500761216));
#380=CARTESIAN_POINT('',(7.01696697078925,19.1470801702134,-16.8144057831372));
#381=CARTESIAN_POINT('',(7.01696697078925,22.4837504829912,-12.0601573033867));
#382=CARTESIAN_POINT('',(7.01696697078925,24.7431297984107,-6.31841135029697));
#383=CARTESIAN_POINT('',(7.01696697078925,25.5455784726282,-5.82077565398772E-15));
#384=CARTESIAN_POINT('',(7.01696697078925,24.7431297984107,6.31841135029697));
#385=CARTESIAN_POINT('',(7.01696697078925,22.4837504829912,12.0601573033867));
#386=CARTESIAN_POINT('',(7.01696697078925,19.1470801702134,16.8144057831371));
#387=CARTESIAN_POINT('',(7.01696697078925,15.1987718745576,20.409500761216));
#388=CARTESIAN_POINT('',(7.01696697078925,11.0589764239567,22.8824499618661));
#389=CARTESIAN_POINT('',(7.01696697078924,5.68278407204161,24.8951852159198));
#390=CARTESIAN_POINT('',(7.01696697078924,2.10203360581412,25.2757863302986));
#391=CARTESIAN_POINT('',(7.01696697078925,2.24875058739812E-15,25.2780955812223));
#392=CARTESIAN_POINT('',(5.5509749543163,-4.02580891046088E-16,-26.4950591440642));
#393=CARTESIAN_POINT('',(5.55097495431631,2.20323182693505,-26.4926387188543));
#394=CARTESIAN_POINT('',(5.5509749543163,5.95637039221954,-26.0937143219052));
#395=CARTESIAN_POINT('',(5.5509749543163,11.5913888166165,-23.9840799380115));
#396=CARTESIAN_POINT('',(5.5509749543163,15.9304864735411,-21.3920755237169));
#397=CARTESIAN_POINT('',(5.55097495431629,20.06887820785,-17.6239018586293));
#398=CARTESIAN_POINT('',(5.55097495431631,23.5661858668559,-12.6407695553344));
#399=CARTESIAN_POINT('',(5.5509749543163,25.9343384991841,-6.62259867974397));
#400=CARTESIAN_POINT('',(5.5509749543163,26.7754194665042,1.68513990288781E-16));
#401=CARTESIAN_POINT('',(5.5509749543163,25.9343384991841,6.62259867974395));
#402=CARTESIAN_POINT('',(5.55097495431631,23.5661858668559,12.6407695553344));
#403=CARTESIAN_POINT('',(5.55097495431629,20.06887820785,17.6239018586293));
#404=CARTESIAN_POINT('',(5.5509749543163,15.9304864735411,21.3920755237168));
#405=CARTESIAN_POINT('',(5.5509749543163,11.5913888166165,23.9840799380115));
#406=CARTESIAN_POINT('',(5.5509749543163,5.95637039221954,26.0937143219051));
#407=CARTESIAN_POINT('',(5.55097495431631,2.20323182693506,26.4926387188543));
#408=CARTESIAN_POINT('',(5.5509749543163,3.24556058416405E-15,26.4950591440642));
#409=CARTESIAN_POINT('',(4.02577591425168,6.24978341353953E-16,-27.301118338121));
#410=CARTESIAN_POINT('',(4.02577591425168,2.27026074961393,-27.2986242763141));
#411=CARTESIAN_POINT('',(4.02577591425168,6.1375810508465,-26.8875634022902));
#412=CARTESIAN_POINT('',(4.02577591425168,11.9440336428356,-24.7137476107617));
#413=CARTESIAN_POINT('',(4.02577591425168,16.4151396693681,-22.0428866452204));
#414=CARTESIAN_POINT('',(4.02577591425169,20.6794336969276,-18.1600738313379));
#415=CARTESIAN_POINT('',(4.02577591425168,24.283139948126,-13.0253396921523));
#416=CARTESIAN_POINT('',(4.02577591425168,26.7233388888561,-6.82407800180663));
#417=CARTESIAN_POINT('',(4.02577591425169,27.5900080627535,-4.7173214100667E-15));
#418=CARTESIAN_POINT('',(4.02577591425169,26.723338888856,6.82407800180662));
#419=CARTESIAN_POINT('',(4.02577591425168,24.283139948126,13.0253396921522));
#420=CARTESIAN_POINT('',(4.02577591425169,20.6794336969276,18.1600738313379));
#421=CARTESIAN_POINT('',(4.02577591425168,16.4151396693681,22.0428866452203));
#422=CARTESIAN_POINT('',(4.02577591425168,11.9440336428356,24.7137476107617));
#423=CARTESIAN_POINT('',(4.02577591425168,6.1375810508465,26.8875634022902));
#424=CARTESIAN_POINT('',(4.02577591425168,2.27026074961393,27.2986242763141));
#425=CARTESIAN_POINT('',(4.02577591425168,2.93220803563662E-15,27.301118338121));
#426=CARTESIAN_POINT('',(2.12452739007479,-5.04252892476451E-16,-27.8646295657697));
#427=CARTESIAN_POINT('',(2.12452739007479,2.31712027405733,-27.8620840250522));
#428=CARTESIAN_POINT('',(2.12452739007479,6.26426435333695,-27.442538611498));
#429=CARTESIAN_POINT('',(2.12452739007479,12.1905655606051,-25.2238539764959));
#430=CARTESIAN_POINT('',(2.12452739007479,16.7539578596176,-22.4978648611502));
#431=CARTESIAN_POINT('',(2.12452739007479,21.1062694376952,-18.5349084945977));
#432=CARTESIAN_POINT('',(2.12452739007479,24.7843583170536,-13.2941904062351));
#433=CARTESIAN_POINT('',(2.12452739007479,27.2749244069886,-6.96493100734079));
#434=CARTESIAN_POINT('',(2.12452739007479,28.1594821451602,-6.39938442551249E-15));
#435=CARTESIAN_POINT('',(2.12452739007479,27.2749244069886,6.96493100734078));
#436=CARTESIAN_POINT('',(2.12452739007479,24.7843583170536,13.2941904062351));
#437=CARTESIAN_POINT('',(2.12452739007479,21.1062694376952,18.5349084945977));
#438=CARTESIAN_POINT('',(2.12452739007479,16.7539578596176,22.4978648611502));
#439=CARTESIAN_POINT('',(2.12452739007479,12.1905655606051,25.2238539764959));
#440=CARTESIAN_POINT('',(2.12452739007478,6.26426435333695,27.442538611498));
#441=CARTESIAN_POINT('',(2.12452739007479,2.31712027405734,27.8620840250522));
#442=CARTESIAN_POINT('',(2.12452739007479,2.70372154377948E-15,27.8646295657697));
#443=CARTESIAN_POINT('',(-7.066372362469E-16,1.49038216916484E-16,-28.0676852171151));
#444=CARTESIAN_POINT('',(-1.22999771853165E-15,2.33400563639039,-28.0651211264856));
#445=CARTESIAN_POINT('',(-1.83488512198963E-16,6.30991341805768,-27.6425183937226));
#446=CARTESIAN_POINT('',(1.65171424714589E-16,12.279400878668,-25.4076657184231));
#447=CARTESIAN_POINT('',(4.25951693350506E-16,16.8760476156565,-22.6618117240532));
#448=CARTESIAN_POINT('',(7.74664569823261E-16,21.2600754403204,-18.6699764275166));
#449=CARTESIAN_POINT('',(8.62491298541691E-16,24.9649673579659,-13.3910680799784));
#450=CARTESIAN_POINT('',(5.13407845154513E-16,27.4736827478374,-7.01568598324793));
#451=CARTESIAN_POINT('',(1.65330243392199E-16,28.364686451754,-1.06033598224647E-15));
#452=CARTESIAN_POINT('',(1.2978132938712E-15,27.4736827478374,7.01568598324791));
#453=CARTESIAN_POINT('',(-9.15854374218712E-18,24.9649673579659,13.3910680799784));
#454=CARTESIAN_POINT('',(5.13354905595309E-16,21.2600754403204,18.6699764275166));
#455=CARTESIAN_POINT('',(7.77682124697854E-17,16.8760476156565,22.6618117240532));
#456=CARTESIAN_POINT('',(2.52362878722578E-16,12.279400878668,25.4076657184231));
#457=CARTESIAN_POINT('',(6.87843692729695E-16,6.30991341805768,27.6425183937226));
#458=CARTESIAN_POINT('',(-1.31681859562522E-15,2.3340056363904,28.0651211264856));
#459=CARTESIAN_POINT('',(-7.066372362469E-16,2.76247690695797E-15,28.0676852171151));
#460=CARTESIAN_POINT('',(-2.12452739007479,-9.18999751894843E-17,-27.8646295657697));
#461=CARTESIAN_POINT('',(-2.12452739007478,2.31712027405733,-27.8620840250522));
#462=CARTESIAN_POINT('',(-2.12452739007478,6.26426435333695,-27.442538611498));
#463=CARTESIAN_POINT('',(-2.12452739007478,12.1905655606051,-25.2238539764959));
#464=CARTESIAN_POINT('',(-2.12452739007479,16.7539578596176,-22.4978648611502));
#465=CARTESIAN_POINT('',(-2.12452739007478,21.1062694376952,-18.5349084945977));
#466=CARTESIAN_POINT('',(-2.12452739007478,24.7843583170536,-13.2941904062351));
#467=CARTESIAN_POINT('',(-2.12452739007478,27.2749244069886,-6.96493100734079));
#468=CARTESIAN_POINT('',(-2.12452739007478,28.1594821451602,-1.0276068375077E-14));
#469=CARTESIAN_POINT('',(-2.12452739007479,27.2749244069886,6.96493100734079));
#470=CARTESIAN_POINT('',(-2.12452739007478,24.7843583170536,13.2941904062351));
#471=CARTESIAN_POINT('',(-2.12452739007478,21.1062694376952,18.5349084945977));
#472=CARTESIAN_POINT('',(-2.12452739007478,16.7539578596176,22.4978648611502));
#473=CARTESIAN_POINT('',(-2.12452739007479,12.1905655606051,25.2238539764959));
#474=CARTESIAN_POINT('',(-2.12452739007479,6.26426435333695,27.442538611498));
#475=CARTESIAN_POINT('',(-2.12452739007478,2.31712027405734,27.8620840250521));
#476=CARTESIAN_POINT('',(-2.12452739007479,2.73889808991521E-15,27.8646295657697));
#477=CARTESIAN_POINT('',(-4.02577591425168,-1.04110814597984E-17,-27.301118338121));
#478=CARTESIAN_POINT('',(-4.02577591425168,2.27026074961393,-27.2986242763142));
#479=CARTESIAN_POINT('',(-4.02577591425168,6.1375810508465,-26.8875634022902));
#480=CARTESIAN_POINT('',(-4.02577591425168,11.9440336428356,-24.7137476107617));
#481=CARTESIAN_POINT('',(-4.02577591425168,16.4151396693681,-22.0428866452204));
#482=CARTESIAN_POINT('',(-4.02577591425169,20.6794336969276,-18.1600738313379));
#483=CARTESIAN_POINT('',(-4.02577591425168,24.283139948126,-13.0253396921523));
#484=CARTESIAN_POINT('',(-4.02577591425168,26.7233388888561,-6.82407800180664));
#485=CARTESIAN_POINT('',(-4.02577591425169,27.5900080627535,-1.76066364955377E-15));
#486=CARTESIAN_POINT('',(-4.02577591425168,26.7233388888561,6.82407800180662));
#487=CARTESIAN_POINT('',(-4.02577591425168,24.283139948126,13.0253396921522));
#488=CARTESIAN_POINT('',(-4.02577591425168,20.6794336969276,18.1600738313379));
#489=CARTESIAN_POINT('',(-4.02577591425168,16.4151396693681,22.0428866452203));
#490=CARTESIAN_POINT('',(-4.02577591425168,11.9440336428356,24.7137476107617));
#491=CARTESIAN_POINT('',(-4.02577591425168,6.13758105084651,26.8875634022902));
#492=CARTESIAN_POINT('',(-4.02577591425168,2.27026074961393,27.2986242763141));
#493=CARTESIAN_POINT('',(-4.02577591425168,2.4316875056203E-15,27.301118338121));
#494=CARTESIAN_POINT('',(-5.5509749543163,-2.6472559444464E-16,-26.4950591440642));
#495=CARTESIAN_POINT('',(-5.55097495431631,2.20323182693505,-26.4926387188543));
#496=CARTESIAN_POINT('',(-5.5509749543163,5.95637039221954,-26.0937143219052));
#497=CARTESIAN_POINT('',(-5.5509749543163,11.5913888166165,-23.9840799380115));
#498=CARTESIAN_POINT('',(-5.5509749543163,15.9304864735411,-21.3920755237169));
#499=CARTESIAN_POINT('',(-5.55097495431629,20.06887820785,-17.6239018586293));
#500=CARTESIAN_POINT('',(-5.5509749543163,23.5661858668559,-12.6407695553344));
#501=CARTESIAN_POINT('',(-5.5509749543163,25.9343384991841,-6.62259867974396));
#502=CARTESIAN_POINT('',(-5.5509749543163,26.7754194665042,-1.50639408332578E-15));
#503=CARTESIAN_POINT('',(-5.5509749543163,25.9343384991841,6.62259867974395));
#504=CARTESIAN_POINT('',(-5.5509749543163,23.5661858668559,12.6407695553344));
#505=CARTESIAN_POINT('',(-5.5509749543163,20.06887820785,17.6239018586293));
#506=CARTESIAN_POINT('',(-5.5509749543163,15.9304864735411,21.3920755237168));
#507=CARTESIAN_POINT('',(-5.5509749543163,11.5913888166165,23.9840799380115));
#508=CARTESIAN_POINT('',(-5.5509749543163,5.95637039221953,26.0937143219051));
#509=CARTESIAN_POINT('',(-5.5509749543163,2.20323182693506,26.4926387188543));
#510=CARTESIAN_POINT('',(-5.5509749543163,3.22111668072701E-15,26.4950591440642));
#511=CARTESIAN_POINT('',(-7.01696697078925,-9.45881564771893E-16,-25.2780955812224));
#512=CARTESIAN_POINT('',(-7.01696697078925,2.10203360581411,-25.2757863302987));
#513=CARTESIAN_POINT('',(-7.01696697078924,5.6827840720416,-24.8951852159198));
#514=CARTESIAN_POINT('',(-7.01696697078925,11.0589764239567,-22.8824499618661));
#515=CARTESIAN_POINT('',(-7.01696697078925,15.1987718745576,-20.409500761216));
#516=CARTESIAN_POINT('',(-7.01696697078925,19.1470801702134,-16.8144057831372));
#517=CARTESIAN_POINT('',(-7.01696697078925,22.4837504829912,-12.0601573033867));
#518=CARTESIAN_POINT('',(-7.01696697078925,24.7431297984107,-6.31841135029699));
#519=CARTESIAN_POINT('',(-7.01696697078924,25.5455784726282,-2.71840250855773E-16));
#520=CARTESIAN_POINT('',(-7.01696697078925,24.7431297984107,6.31841135029697));
#521=CARTESIAN_POINT('',(-7.01696697078925,22.4837504829912,12.0601573033867));
#522=CARTESIAN_POINT('',(-7.01696697078925,19.1470801702134,16.8144057831371));
#523=CARTESIAN_POINT('',(-7.01696697078925,15.1987718745576,20.409500761216));
#524=CARTESIAN_POINT('',(-7.01696697078925,11.0589764239567,22.8824499618661));
#525=CARTESIAN_POINT('',(-7.01696697078925,5.68278407204161,24.8951852159199));
#526=CARTESIAN_POINT('',(-7.01696697078924,2.10203360581411,25.2757863302986));
#527=CARTESIAN_POINT('',(-7.01696697078925,1.97468175288956E-15,25.2780955812224));
#528=CARTESIAN_POINT('',(-7.70676863873293,4.76794348023443E-17,-24.1025316067096));
#529=CARTESIAN_POINT('',(-7.70676863873294,2.00427802243679,-24.100329748061));
#530=CARTESIAN_POINT('',(-7.70676863873292,5.41850481854476,-23.7374285809462));
#531=CARTESIAN_POINT('',(-7.70676863873293,10.5446760393721,-21.8182960687325));
#532=CARTESIAN_POINT('',(-7.70676863873293,14.4919492970751,-19.4603519712851));
#533=CARTESIAN_POINT('',(-7.70676863873292,18.2566405564819,-16.0324477583333));
#534=CARTESIAN_POINT('',(-7.70676863873293,21.4381382059582,-11.4992967588387));
#535=CARTESIAN_POINT('',(-7.70676863873292,23.5924445375593,-6.02457209584462));
#536=CARTESIAN_POINT('',(-7.70676863873293,24.3575751412847,-4.38260602536628E-16));
#537=CARTESIAN_POINT('',(-7.70676863873292,23.5924445375593,6.02457209584461));
#538=CARTESIAN_POINT('',(-7.70676863873293,21.4381382059582,11.4992967588388));
#539=CARTESIAN_POINT('',(-7.70676863873292,18.2566405564819,16.0324477583333));
#540=CARTESIAN_POINT('',(-7.70676863873292,14.4919492970751,19.4603519712851));
#541=CARTESIAN_POINT('',(-7.70676863873293,10.5446760393721,21.8182960687325));
#542=CARTESIAN_POINT('',(-7.70676863873291,5.41850481854476,23.7374285809462));
#543=CARTESIAN_POINT('',(-7.70676863873294,2.0042780224368,24.100329748061));
#544=CARTESIAN_POINT('',(-7.70676863873293,3.15823943246563E-15,24.1025316067096));
#545=CARTESIAN_POINT('',(-7.96688511027229,-1.53673028494305E-16,-23.126368226023));
#546=CARTESIAN_POINT('',(-7.96688511027229,1.92310386023081,-23.1242555436408));
#547=CARTESIAN_POINT('',(-7.96688511027229,5.19905293406036,-22.7760520371671));
#548=CARTESIAN_POINT('',(-7.9668851102723,10.1176119127152,-20.9346452556641));
#549=CARTESIAN_POINT('',(-7.96688511027228,13.9050188264753,-18.672198955676));
#550=CARTESIAN_POINT('',(-7.96688511027229,17.5172383950661,-15.3831264065422));
#551=CARTESIAN_POINT('',(-7.96688511027229,20.5698839574738,-11.0335700632869));
#552=CARTESIAN_POINT('',(-7.96688511027229,22.6369399128072,-5.78057421378675));
#553=CARTESIAN_POINT('',(-7.96688511027229,23.3710823826308,1.88075595363181E-15));
#554=CARTESIAN_POINT('',(-7.96688511027229,22.6369399128072,5.78057421378674));
#555=CARTESIAN_POINT('',(-7.96688511027229,20.5698839574738,11.0335700632869));
#556=CARTESIAN_POINT('',(-7.96688511027229,17.517238395066,15.3831264065422));
#557=CARTESIAN_POINT('',(-7.96688511027229,13.9050188264753,18.672198955676));
#558=CARTESIAN_POINT('',(-7.9668851102723,10.1176119127152,20.9346452556641));
#559=CARTESIAN_POINT('',(-7.96688511027229,5.19905293406036,22.7760520371671));
#560=CARTESIAN_POINT('',(-7.96688511027229,1.92310386023081,23.1242555436408));
#561=CARTESIAN_POINT('',(-7.96688511027229,2.71059952388705E-15,23.126368226023));
#562=CARTESIAN_POINT('',(-8.01655744486385,-5.63931862996899E-18,-22.5));
#563=CARTESIAN_POINT('',(-8.01655744486386,1.87101737861736,-22.4979445387563));
#564=CARTESIAN_POINT('',(-8.01655744486385,5.05823871146045,-22.1591719818598));
#565=CARTESIAN_POINT('',(-8.01655744486385,9.84358053159136,-20.3676389500024));
#566=CARTESIAN_POINT('',(-8.01655744486386,13.5284070779279,-18.1664700828366));
#567=CARTESIAN_POINT('',(-8.01655744486386,17.0427911566971,-14.9664807186512));
#568=CARTESIAN_POINT('',(-8.01655744486385,20.0127570624068,-10.73473033023));
#569=CARTESIAN_POINT('',(-8.01655744486386,22.0238276524991,-5.62400972513481));
#570=CARTESIAN_POINT('',(-8.01655744486385,22.7380861737504,-3.4363849568134E-16));
#571=CARTESIAN_POINT('',(-8.01655744486386,22.0238276524992,5.62400972513481));
#572=CARTESIAN_POINT('',(-8.01655744486385,20.0127570624068,10.73473033023));
#573=CARTESIAN_POINT('',(-8.01655744486385,17.0427911566971,14.9664807186511));
#574=CARTESIAN_POINT('',(-8.01655744486386,13.5284070779279,18.1664700828366));
#575=CARTESIAN_POINT('',(-8.01655744486385,9.84358053159137,20.3676389500024));
#576=CARTESIAN_POINT('',(-8.01655744486386,5.05823871146045,22.1591719818598));
#577=CARTESIAN_POINT('',(-8.01655744486385,1.87101737861736,22.4979445387562));
#578=CARTESIAN_POINT('',(-8.01655744486385,2.7525509287915E-15,22.5));
#579=CARTESIAN_POINT('',(-7.96688511027229,1.76230303014181E-16,-21.873631773977));
#580=CARTESIAN_POINT('',(-7.96688511027229,1.8189308970039,-21.8716335338716));
#581=CARTESIAN_POINT('',(-7.96688511027229,4.91742448886053,-21.5422919265524));
#582=CARTESIAN_POINT('',(-7.96688511027229,9.56954915046751,-19.8006326443406));
#583=CARTESIAN_POINT('',(-7.96688511027228,13.1517953293804,-17.6607412099972));
#584=CARTESIAN_POINT('',(-7.9668851102723,16.5683439183283,-14.5498350307601));
#585=CARTESIAN_POINT('',(-7.96688511027229,19.4556301673398,-10.435890597173));
#586=CARTESIAN_POINT('',(-7.96688511027229,21.4107153921911,-5.46744523648288));
#587=CARTESIAN_POINT('',(-7.96688511027229,22.10508996487,2.63131753852986E-15));
#588=CARTESIAN_POINT('',(-7.96688511027229,21.4107153921911,5.46744523648288));
#589=CARTESIAN_POINT('',(-7.96688511027229,19.4556301673398,10.435890597173));
#590=CARTESIAN_POINT('',(-7.96688511027229,16.5683439183283,14.5498350307601));
#591=CARTESIAN_POINT('',(-7.96688511027229,13.1517953293804,17.6607412099972));
#592=CARTESIAN_POINT('',(-7.96688511027229,9.5695491504675,19.8006326443406));
#593=CARTESIAN_POINT('',(-7.96688511027229,4.91742448886053,21.5422919265525));
#594=CARTESIAN_POINT('',(-7.96688511027229,1.8189308970039,21.8716335338716));
#595=CARTESIAN_POINT('',(-7.96688511027229,2.81192854943623E-15,21.873631773977));
#596=CARTESIAN_POINT('',(-7.70676863873293,-8.35534476944401E-17,-20.8974683932904));
#597=CARTESIAN_POINT('',(-7.70676863873295,1.73775673479792,-20.8955593294516));
#598=CARTESIAN_POINT('',(-7.70676863873291,4.69797260437612,-20.5809153827734));
#599=CARTESIAN_POINT('',(-7.70676863873293,9.14248502381063,-18.9169818312722));
#600=CARTESIAN_POINT('',(-7.70676863873294,12.5648648587806,-16.8725881943882));
#601=CARTESIAN_POINT('',(-7.70676863873292,15.8289417569123,-13.900513678969));
#602=CARTESIAN_POINT('',(-7.70676863873292,18.5873759188554,-9.97016390162119));
#603=CARTESIAN_POINT('',(-7.70676863873292,20.4552107674389,-5.22344735442501));
#604=CARTESIAN_POINT('',(-7.70676863873293,21.1185972062162,-5.08083571043796E-16));
#605=CARTESIAN_POINT('',(-7.70676863873292,20.4552107674389,5.22344735442501));
#606=CARTESIAN_POINT('',(-7.70676863873293,18.5873759188554,9.9701639016212));
#607=CARTESIAN_POINT('',(-7.70676863873292,15.8289417569124,13.900513678969));
#608=CARTESIAN_POINT('',(-7.70676863873293,12.5648648587806,16.8725881943882));
#609=CARTESIAN_POINT('',(-7.70676863873293,9.14248502381064,18.9169818312722));
#610=CARTESIAN_POINT('',(-7.70676863873291,4.69797260437612,20.5809153827734));
#611=CARTESIAN_POINT('',(-7.70676863873294,1.73775673479793,20.8955593294515));
#612=CARTESIAN_POINT('',(-7.70676863873293,2.37149613760383E-15,20.8974683932904));
#613=CARTESIAN_POINT('',(-7.01696697078925,-5.42732145762372E-16,-19.7219044187776));
#614=CARTESIAN_POINT('',(-7.01696697078925,1.64000115142059,-19.7201027472138));
#615=CARTESIAN_POINT('',(-7.01696697078924,4.43369335087928,-19.4231587477997));
#616=CARTESIAN_POINT('',(-7.01696697078925,8.62818463922602,-17.8528279381386));
#617=CARTESIAN_POINT('',(-7.01696697078924,11.8580422812982,-15.9234394044572));
#618=CARTESIAN_POINT('',(-7.01696697078925,14.9385021431809,-13.1185556541652));
#619=CARTESIAN_POINT('',(-7.01696697078925,17.5417636418224,-9.40930335707329));
#620=CARTESIAN_POINT('',(-7.01696697078925,19.3045255065876,-4.92960809997266));
#621=CARTESIAN_POINT('',(-7.01696697078925,19.9305938748727,3.48971320797485E-15));
#622=CARTESIAN_POINT('',(-7.01696697078926,19.3045255065876,4.92960809997264));
#623=CARTESIAN_POINT('',(-7.01696697078925,17.5417636418224,9.4093033570733));
#624=CARTESIAN_POINT('',(-7.01696697078926,14.9385021431809,13.1185556541652));
#625=CARTESIAN_POINT('',(-7.01696697078925,11.8580422812982,15.9234394044572));
#626=CARTESIAN_POINT('',(-7.01696697078925,8.62818463922602,17.8528279381386));
#627=CARTESIAN_POINT('',(-7.01696697078925,4.43369335087928,19.4231587477998));
#628=CARTESIAN_POINT('',(-7.01696697078924,1.6400011514206,19.7201027472138));
#629=CARTESIAN_POINT('',(-7.01696697078925,1.70848141458881E-15,19.7219044187776));
#630=CARTESIAN_POINT('',(-5.5509749543163,9.7066961700776E-16,-18.5049408559358));
#631=CARTESIAN_POINT('',(-5.5509749543163,1.53880293029965,-18.5032503586581));
#632=CARTESIAN_POINT('',(-5.5509749543163,4.16010703070136,-18.2246296418145));
#633=CARTESIAN_POINT('',(-5.5509749543163,8.0957722465662,-16.7511979619933));
#634=CARTESIAN_POINT('',(-5.5509749543163,11.1263276823146,-14.9408646419564));
#635=CARTESIAN_POINT('',(-5.5509749543163,14.0167041055443,-12.309059578673));
#636=CARTESIAN_POINT('',(-5.5509749543163,16.4593282579578,-8.82869110512559));
#637=CARTESIAN_POINT('',(-5.5509749543163,18.1133168058142,-4.62542077052566));
#638=CARTESIAN_POINT('',(-5.5509749543163,18.7007528809966,-1.79661787527995E-15));
#639=CARTESIAN_POINT('',(-5.5509749543163,18.1133168058142,4.62542077052567));
#640=CARTESIAN_POINT('',(-5.5509749543163,16.4593282579578,8.82869110512559));
#641=CARTESIAN_POINT('',(-5.5509749543163,14.0167041055443,12.309059578673));
#642=CARTESIAN_POINT('',(-5.5509749543163,11.1263276823146,14.9408646419564));
#643=CARTESIAN_POINT('',(-5.5509749543163,8.0957722465662,16.7511979619933));
#644=CARTESIAN_POINT('',(-5.5509749543163,4.16010703070136,18.2246296418145));
#645=CARTESIAN_POINT('',(-5.5509749543163,1.53880293029965,18.5032503586581));
#646=CARTESIAN_POINT('',(-5.5509749543163,3.03037620546434E-15,18.5049408559358));
#647=CARTESIAN_POINT('',(-4.02577591425168,-2.60058270973691E-16,-17.6988816618789));
#648=CARTESIAN_POINT('',(-4.02577591425169,1.47177400762078,-17.6972648011983));
#649=CARTESIAN_POINT('',(-4.02577591425168,3.97889637207438,-17.4307805614294));
#650=CARTESIAN_POINT('',(-4.02577591425169,7.74312742034716,-16.021530289243));
#651=CARTESIAN_POINT('',(-4.02577591425168,10.6416744864876,-14.2900535204529));
#652=CARTESIAN_POINT('',(-4.02577591425168,13.4061486164667,-11.7728876059644));
#653=CARTESIAN_POINT('',(-4.02577591425168,15.7423741766876,-8.44412096830768));
#654=CARTESIAN_POINT('',(-4.02577591425168,17.3243164161422,-4.423941448463));
#655=CARTESIAN_POINT('',(-4.02577591425168,17.8861642847473,1.88082155452232E-15));
#656=CARTESIAN_POINT('',(-4.02577591425168,17.3243164161422,4.423941448463));
#657=CARTESIAN_POINT('',(-4.02577591425168,15.7423741766876,8.4441209683077));
#658=CARTESIAN_POINT('',(-4.02577591425168,13.4061486164667,11.7728876059644));
#659=CARTESIAN_POINT('',(-4.02577591425168,10.6416744864876,14.2900535204529));
#660=CARTESIAN_POINT('',(-4.02577591425168,7.74312742034717,16.021530289243));
#661=CARTESIAN_POINT('',(-4.02577591425168,3.97889637207437,17.4307805614294));
#662=CARTESIAN_POINT('',(-4.02577591425168,1.47177400762078,17.6972648011983));
#663=CARTESIAN_POINT('',(-4.02577591425168,1.67845441769571E-15,17.6988816618789));
#664=CARTESIAN_POINT('',(-2.12452739007479,3.1295062523181E-16,-17.1353704342303));
#665=CARTESIAN_POINT('',(-2.12452739007478,1.42491448317738,-17.1338050524603));
#666=CARTESIAN_POINT('',(-2.12452739007479,3.85221306958394,-16.8758053522216));
#667=CARTESIAN_POINT('',(-2.12452739007478,7.49659550257759,-15.5114239235088));
#668=CARTESIAN_POINT('',(-2.12452739007479,10.3028562962381,-13.835075304523));
#669=CARTESIAN_POINT('',(-2.12452739007478,12.9793128756991,-11.3980529427046));
#670=CARTESIAN_POINT('',(-2.12452739007479,15.24115580776,-8.17527025422481));
#671=CARTESIAN_POINT('',(-2.12452739007478,16.7727308980097,-4.28308844292884));
#672=CARTESIAN_POINT('',(-2.12452739007479,17.3166902023406,-4.9746916041547E-16));
#673=CARTESIAN_POINT('',(-2.12452739007478,16.7727308980097,4.28308844292884));
#674=CARTESIAN_POINT('',(-2.12452739007479,15.24115580776,8.1752702542248));
#675=CARTESIAN_POINT('',(-2.12452739007479,12.9793128756991,11.3980529427046));
#676=CARTESIAN_POINT('',(-2.12452739007478,10.3028562962381,13.835075304523));
#677=CARTESIAN_POINT('',(-2.12452739007479,7.4965955025776,15.5114239235088));
#678=CARTESIAN_POINT('',(-2.12452739007478,3.85221306958394,16.8758053522215));
#679=CARTESIAN_POINT('',(-2.12452739007479,1.42491448317738,17.1338050524603));
#680=CARTESIAN_POINT('',(-2.12452739007479,2.16935689750182E-15,17.1353704342303));
#681=CARTESIAN_POINT('',(3.150962563786E-16,2.2300089505374E-16,-16.9323147828848));
#682=CARTESIAN_POINT('',(-3.45165926006127E-17,1.40802912084431,-16.9307679510269));
#683=CARTESIAN_POINT('',(8.38244980426537E-16,3.8065640048632,-16.675825569997));
#684=CARTESIAN_POINT('',(-2.07417192958897E-16,7.40776018451475,-15.3276121815816));
#685=CARTESIAN_POINT('',(3.14249223431345E-16,10.1807665401992,-13.67112844162));
#686=CARTESIAN_POINT('',(-5.57135921056516E-16,12.8255068730739,-11.2629850097857));
#687=CARTESIAN_POINT('',(5.42101086242752E-17,15.0605467668477,-8.07839258048156));
#688=CARTESIAN_POINT('',(-4.69573890134103E-16,16.5739725571609,-4.2323334670217));
#689=CARTESIAN_POINT('',(1.41454502191468E-16,17.1114858957468,1.15489492361833E-15));
#690=CARTESIAN_POINT('',(-1.42820342818916E-15,16.5739725571609,4.23233346702169));
#691=CARTESIAN_POINT('',(6.63967951528965E-16,15.0605467668477,8.07839258048157));
#692=CARTESIAN_POINT('',(4.01917133472166E-16,12.8255068730739,11.2629850097857));
#693=CARTESIAN_POINT('',(-1.0794376121572E-15,10.1807665401992,13.67112844162));
#694=CARTESIAN_POINT('',(8.38456738663351E-16,7.40776018451476,15.3276121815816));
#695=CARTESIAN_POINT('',(-5.56500646346075E-16,3.80656400486321,16.675825569997));
#696=CARTESIAN_POINT('',(4.89055647920952E-16,1.40802912084432,16.9307679510269));
#697=CARTESIAN_POINT('',(3.150962563786E-16,2.05025078951242E-15,16.9323147828848));
#698=CARTESIAN_POINT('',(2.12452739007479,1.82824575334674E-16,-17.1353704342303));
#699=CARTESIAN_POINT('',(2.12452739007479,1.42491448317738,-17.1338050524603));
#700=CARTESIAN_POINT('',(2.12452739007478,3.85221306958394,-16.8758053522216));
#701=CARTESIAN_POINT('',(2.12452739007479,7.49659550257759,-15.5114239235088));
#702=CARTESIAN_POINT('',(2.12452739007479,10.3028562962381,-13.835075304523));
#703=CARTESIAN_POINT('',(2.12452739007479,12.9793128756991,-11.3980529427046));
#704=CARTESIAN_POINT('',(2.12452739007479,15.24115580776,-8.17527025422481));
#705=CARTESIAN_POINT('',(2.12452739007479,16.7727308980097,-4.28308844292884));
#706=CARTESIAN_POINT('',(2.12452739007479,17.3166902023406,-9.84591024621544E-16));
#707=CARTESIAN_POINT('',(2.12452739007479,16.7727308980097,4.28308844292884));
#708=CARTESIAN_POINT('',(2.12452739007478,15.24115580776,8.17527025422481));
#709=CARTESIAN_POINT('',(2.12452739007479,12.9793128756991,11.3980529427046));
#710=CARTESIAN_POINT('',(2.12452739007479,10.3028562962381,13.835075304523));
#711=CARTESIAN_POINT('',(2.12452739007478,7.4965955025776,15.5114239235088));
#712=CARTESIAN_POINT('',(2.12452739007479,3.85221306958394,16.8758053522216));
#713=CARTESIAN_POINT('',(2.12452739007479,1.42491448317738,17.1338050524603));
#714=CARTESIAN_POINT('',(2.12452739007479,2.03923991755612E-15,17.1353704342303));
#715=CARTESIAN_POINT('',(4.02577591425168,3.88313836510356E-16,-17.698881661879));
#716=CARTESIAN_POINT('',(4.02577591425169,1.47177400762078,-17.6972648011983));
#717=CARTESIAN_POINT('',(4.02577591425168,3.97889637207437,-17.4307805614294));
#718=CARTESIAN_POINT('',(4.02577591425168,7.74312742034716,-16.021530289243));
#719=CARTESIAN_POINT('',(4.02577591425169,10.6416744864876,-14.2900535204529));
#720=CARTESIAN_POINT('',(4.02577591425168,13.4061486164667,-11.7728876059644));
#721=CARTESIAN_POINT('',(4.02577591425168,15.7423741766876,-8.44412096830768));
#722=CARTESIAN_POINT('',(4.02577591425168,17.3243164161422,-4.423941448463));
#723=CARTESIAN_POINT('',(4.02577591425168,17.8861642847473,1.73762933838907E-15));
#724=CARTESIAN_POINT('',(4.02577591425168,17.3243164161422,4.423941448463));
#725=CARTESIAN_POINT('',(4.02577591425169,15.7423741766876,8.4441209683077));
#726=CARTESIAN_POINT('',(4.02577591425168,13.4061486164667,11.7728876059644));
#727=CARTESIAN_POINT('',(4.02577591425169,10.6416744864876,14.2900535204529));
#728=CARTESIAN_POINT('',(4.02577591425168,7.74312742034716,16.021530289243));
#729=CARTESIAN_POINT('',(4.02577591425168,3.97889637207438,17.4307805614294));
#730=CARTESIAN_POINT('',(4.02577591425168,1.47177400762078,17.6972648011983));
#731=CARTESIAN_POINT('',(4.02577591425168,2.32679024537403E-15,17.698881661879));
#732=CARTESIAN_POINT('',(5.5509749543163,9.41178820416765E-16,-18.5049408559358));
#733=CARTESIAN_POINT('',(5.5509749543163,1.53880293029965,-18.5032503586581));
#734=CARTESIAN_POINT('',(5.5509749543163,4.16010703070136,-18.2246296418145));
#735=CARTESIAN_POINT('',(5.5509749543163,8.0957722465662,-16.7511979619933));
#736=CARTESIAN_POINT('',(5.5509749543163,11.1263276823146,-14.9408646419564));
#737=CARTESIAN_POINT('',(5.5509749543163,14.0167041055443,-12.309059578673));
#738=CARTESIAN_POINT('',(5.5509749543163,16.4593282579578,-8.8286911051256));
#739=CARTESIAN_POINT('',(5.5509749543163,18.1133168058142,-4.62542077052566));
#740=CARTESIAN_POINT('',(5.5509749543163,18.7007528809966,-1.78256698301966E-15));
#741=CARTESIAN_POINT('',(5.5509749543163,18.1133168058142,4.62542077052567));
#742=CARTESIAN_POINT('',(5.5509749543163,16.4593282579578,8.82869110512559));
#743=CARTESIAN_POINT('',(5.5509749543163,14.0167041055443,12.309059578673));
#744=CARTESIAN_POINT('',(5.5509749543163,11.1263276823146,14.9408646419564));
#745=CARTESIAN_POINT('',(5.5509749543163,8.0957722465662,16.7511979619933));
#746=CARTESIAN_POINT('',(5.5509749543163,4.16010703070136,18.2246296418145));
#747=CARTESIAN_POINT('',(5.5509749543163,1.53880293029965,18.5032503586581));
#748=CARTESIAN_POINT('',(5.5509749543163,3.00102145814482E-15,18.5049408559358));
#749=CARTESIAN_POINT('',(7.01696697078925,-3.37964603235967E-16,-19.7219044187776));
#750=CARTESIAN_POINT('',(7.01696697078925,1.6400011514206,-19.7201027472138));
#751=CARTESIAN_POINT('',(7.01696697078925,4.43369335087928,-19.4231587477998));
#752=CARTESIAN_POINT('',(7.01696697078925,8.62818463922602,-17.8528279381386));
#753=CARTESIAN_POINT('',(7.01696697078925,11.8580422812982,-15.9234394044572));
#754=CARTESIAN_POINT('',(7.01696697078925,14.9385021431809,-13.1185556541652));
#755=CARTESIAN_POINT('',(7.01696697078925,17.5417636418224,-9.40930335707328));
#756=CARTESIAN_POINT('',(7.01696697078925,19.3045255065876,-4.92960809997266));
#757=CARTESIAN_POINT('',(7.01696697078925,19.9305938748727,3.60101444001088E-15));
#758=CARTESIAN_POINT('',(7.01696697078925,19.3045255065876,4.92960809997265));
#759=CARTESIAN_POINT('',(7.01696697078925,17.5417636418224,9.40930335707329));
#760=CARTESIAN_POINT('',(7.01696697078925,14.9385021431809,13.1185556541652));
#761=CARTESIAN_POINT('',(7.01696697078925,11.8580422812982,15.9234394044572));
#762=CARTESIAN_POINT('',(7.01696697078925,8.62818463922602,17.8528279381386));
#763=CARTESIAN_POINT('',(7.01696697078925,4.43369335087928,19.4231587477998));
#764=CARTESIAN_POINT('',(7.01696697078924,1.6400011514206,19.7201027472138));
#765=CARTESIAN_POINT('',(7.01696697078925,1.9125263843178E-15,19.7219044187776));
#766=CARTESIAN_POINT('',(7.70676863873293,2.36549918780304E-16,-20.8974683932904));
#767=CARTESIAN_POINT('',(7.70676863873295,1.73775673479792,-20.8955593294516));
#768=CARTESIAN_POINT('',(7.70676863873291,4.69797260437612,-20.5809153827734));
#769=CARTESIAN_POINT('',(7.70676863873293,9.14248502381064,-18.9169818312722));
#770=CARTESIAN_POINT('',(7.70676863873293,12.5648648587806,-16.8725881943882));
#771=CARTESIAN_POINT('',(7.70676863873293,15.8289417569123,-13.900513678969));
#772=CARTESIAN_POINT('',(7.70676863873292,18.5873759188554,-9.97016390162119));
#773=CARTESIAN_POINT('',(7.70676863873293,20.455210767439,-5.22344735442501));
#774=CARTESIAN_POINT('',(7.70676863873293,21.1185972062161,7.48283908620376E-16));
#775=CARTESIAN_POINT('',(7.70676863873292,20.4552107674389,5.22344735442501));
#776=CARTESIAN_POINT('',(7.70676863873292,18.5873759188554,9.9701639016212));
#777=CARTESIAN_POINT('',(7.70676863873293,15.8289417569124,13.900513678969));
#778=CARTESIAN_POINT('',(7.70676863873292,12.5648648587806,16.8725881943882));
#779=CARTESIAN_POINT('',(7.70676863873293,9.14248502381064,18.9169818312722));
#780=CARTESIAN_POINT('',(7.7067686387329,4.69797260437612,20.5809153827734));
#781=CARTESIAN_POINT('',(7.70676863873294,1.73775673479793,20.8955593294515));
#782=CARTESIAN_POINT('',(7.70676863873293,2.69611331657453E-15,20.8974683932904));
#783=CARTESIAN_POINT('',(7.96688511027229,4.03782270643482E-17,-21.873631773977));
#784=CARTESIAN_POINT('',(7.96688511027229,1.8189308970039,-21.8716335338717));
#785=CARTESIAN_POINT('',(7.96688511027229,4.91742448886053,-21.5422919265525));
#786=CARTESIAN_POINT('',(7.96688511027229,9.5695491504675,-19.8006326443407));
#787=CARTESIAN_POINT('',(7.96688511027228,13.1517953293804,-17.6607412099972));
#788=CARTESIAN_POINT('',(7.96688511027228,16.5683439183283,-14.5498350307601));
#789=CARTESIAN_POINT('',(7.9668851102723,19.4556301673398,-10.435890597173));
#790=CARTESIAN_POINT('',(7.96688511027229,21.4107153921911,-5.46744523648288));
#791=CARTESIAN_POINT('',(7.96688511027229,22.10508996487,-6.4099069537022E-16));
#792=CARTESIAN_POINT('',(7.96688511027229,21.4107153921911,5.46744523648288));
#793=CARTESIAN_POINT('',(7.96688511027229,19.4556301673398,10.435890597173));
#794=CARTESIAN_POINT('',(7.96688511027229,16.5683439183283,14.5498350307601));
#795=CARTESIAN_POINT('',(7.9668851102723,13.1517953293804,17.6607412099973));
#796=CARTESIAN_POINT('',(7.9668851102723,9.5695491504675,19.8006326443407));
#797=CARTESIAN_POINT('',(7.9668851102723,4.91742448886053,21.5422919265525));
#798=CARTESIAN_POINT('',(7.96688511027228,1.8189308970039,21.8716335338716));
#799=CARTESIAN_POINT('',(7.96688511027229,2.66835794481781E-15,21.873631773977));
#800=CARTESIAN_POINT('',(8.01655744486385,-8.68271240397241E-18,-22.5));
#801=CARTESIAN_POINT('',(8.01655744486386,1.87101737861736,-22.4979445387562));
#802=CARTESIAN_POINT('',(8.01655744486385,5.05823871146045,-22.1591719818598));
#803=CARTESIAN_POINT('',(8.01655744486385,9.84358053159136,-20.3676389500024));
#804=CARTESIAN_POINT('',(8.01655744486386,13.5284070779279,-18.1664700828366));
#805=CARTESIAN_POINT('',(8.01655744486386,17.0427911566971,-14.9664807186511));
#806=CARTESIAN_POINT('',(8.01655744486385,20.0127570624068,-10.73473033023));
#807=CARTESIAN_POINT('',(8.01655744486386,22.0238276524991,-5.62400972513481));
#808=CARTESIAN_POINT('',(8.01655744486385,22.7380861737504,1.11715768737938E-15));
#809=CARTESIAN_POINT('',(8.01655744486386,22.0238276524992,5.62400972513481));
#810=CARTESIAN_POINT('',(8.01655744486385,20.0127570624068,10.73473033023));
#811=CARTESIAN_POINT('',(8.01655744486386,17.0427911566971,14.9664807186511));
#812=CARTESIAN_POINT('',(8.01655744486386,13.5284070779279,18.1664700828366));
#813=CARTESIAN_POINT('',(8.01655744486385,9.84358053159136,20.3676389500024));
#814=CARTESIAN_POINT('',(8.01655744486386,5.05823871146045,22.1591719818598));
#815=CARTESIAN_POINT('',(8.01655744486386,1.87101737861736,22.4979445387562));
#816=CARTESIAN_POINT('',(8.01655744486385,2.77892592248702E-15,22.5));
#817=CARTESIAN_POINT('',(7.96688511027229,-5.64737744845853E-18,-23.126368226023));
#818=CARTESIAN_POINT('',(7.96688511027229,1.92310386023081,-23.1242555436409));
#819=CARTESIAN_POINT('',(7.96688511027229,5.19905293406036,-22.7760520371671));
#820=CARTESIAN_POINT('',(7.9668851102723,10.1176119127152,-20.9346452556641));
#821=CARTESIAN_POINT('',(7.96688511027228,13.9050188264753,-18.6721989556759));
#822=CARTESIAN_POINT('',(7.96688511027229,17.5172383950661,-15.3831264065422));
#823=CARTESIAN_POINT('',(7.96688511027229,20.5698839574738,-11.0335700632869));
#824=CARTESIAN_POINT('',(7.96688511027229,22.6369399128072,-5.78057421378675));
#825=CARTESIAN_POINT('',(7.96688511027229,23.3710823826308,-6.90120544710994E-16));
#826=CARTESIAN_POINT('',(7.96688511027229,22.6369399128072,5.78057421378674));
#827=CARTESIAN_POINT('',(7.96688511027229,20.5698839574738,11.0335700632869));
#828=CARTESIAN_POINT('',(7.96688511027229,17.517238395066,15.3831264065422));
#829=CARTESIAN_POINT('',(7.96688511027229,13.9050188264753,18.6721989556759));
#830=CARTESIAN_POINT('',(7.96688511027229,10.1176119127152,20.9346452556641));
#831=CARTESIAN_POINT('',(7.96688511027229,5.19905293406036,22.7760520371671));
#832=CARTESIAN_POINT('',(7.96688511027229,1.92310386023081,23.1242555436408));
#833=CARTESIAN_POINT('',(7.96688511027229,2.74867015372339E-15,23.126368226023));
#834=CARTESIAN_POINT('',(2.00740914974528,27.7703477635397,-2.65053445670923));
#835=CARTESIAN_POINT('',(3.29419507289381,27.5304347097842,-0.454242092751007));
#836=CARTESIAN_POINT('',(2.64726603917226,27.6690209056338,2.01002537162059));
#837=CARTESIAN_POINT('',(0.457415595237994,27.8917430248198,3.29279151383754));
#838=CARTESIAN_POINT('',(-2.00982570407112,27.7701195790966,2.64893488184836));
#839=CARTESIAN_POINT('',(-3.29250553955883,27.5306433304168,0.455372963191781));
#840=CARTESIAN_POINT('',(-2.65070493632137,27.6685715017425,-2.00640828997967));
#841=CARTESIAN_POINT('',(-0.456885658685016,27.8917779913883,-3.2931665661522));
#842=CARTESIAN_POINT('',(2.00740914974528,27.7703477635397,-2.65053445670923));
#843=CARTESIAN_POINT('',(3.29419507289381,27.5304347097842,-0.454242092751007));
#844=CARTESIAN_POINT('',(2.64726603917226,27.6690209056338,2.01002537162059));
#845=CARTESIAN_POINT('',(2.9719092467488,27.5935179180517,-0.409579576015445));
#846=CARTESIAN_POINT('',(0.,52.5,-3.06161699786839E-16));
#847=MECHANICAL_DESIGN_GEOMETRIC_PRESENTATION_REPRESENTATION('',(#99),#848);
#848=(
GEOMETRIC_REPRESENTATION_CONTEXT(3)
GLOBAL_UNCERTAINTY_ASSIGNED_CONTEXT((#849))
GLOBAL_UNIT_ASSIGNED_CONTEXT((#852,#851,#850))
REPRESENTATION_CONTEXT('Part 1','TOP_LEVEL_ASSEMBLY_PART')
);
#849=UNCERTAINTY_MEASURE_WITH_UNIT(LENGTH_MEASURE(1.E-5),#852,
'DISTANCE_ACCURACY_VALUE','Maximum Tolerance applied to model');
#850=(
NAMED_UNIT(*)
SI_UNIT($,.STERADIAN.)
SOLID_ANGLE_UNIT()
);
#851=(
NAMED_UNIT(*)
PLANE_ANGLE_UNIT()
SI_UNIT($,.RADIAN.)
);
#852=(
LENGTH_UNIT()
NAMED_UNIT(*)
SI_UNIT(.MILLI.,.METRE.)
);
#853=PRODUCT_DEFINITION_SHAPE('','',#854);
#854=PRODUCT_DEFINITION('','',#856,#855);
#855=PRODUCT_DEFINITION_CONTEXT('',#862,'design');
#856=PRODUCT_DEFINITION_FORMATION_WITH_SPECIFIED_SOURCE('','',#858,
 .NOT_KNOWN.);
#857=PRODUCT_RELATED_PRODUCT_CATEGORY('','',(#858));
#858=PRODUCT('Part 1','Part 1','Part 1',(#860));
#859=PRODUCT_CATEGORY('','');
#860=PRODUCT_CONTEXT('',#862,'mechanical');
#861=APPLICATION_PROTOCOL_DEFINITION('international standard',
'ap242_managed_model_based_3d_engineering',2020,#862);
#862=APPLICATION_CONTEXT('managed model based 3d engineering');
ENDSEC;
END-ISO-10303-21;
